<?xml version="1.0" encoding="utf-8"?>
<!-- Generator: Adobe Illustrator 23.0.1, SVG Export Plug-In . SVG Version: 6.00 Build 0)  -->
<svg version="1.1" xmlns="http://www.w3.org/2000/svg" xmlns:xlink="http://www.w3.org/1999/xlink" x="0px" y="0px"
	 viewBox="0 0 108.6 25.5" style="enable-background:new 0 0 108.6 25.5;" xml:space="preserve">
<style type="text/css">
	.st0{display:none;}
	.st1{display:inline;}
	.st2{fill:#F9813E;}
</style>
<g id="Layer_1" class="st0">
	<title>Logo</title>
	<g class="st1">
		<path class="st2" d="M20.6,2.1c-5.9,0-10.7,4.8-10.7,10.7s4.8,10.7,10.7,10.7s10.7-4.8,10.7-10.7C31.3,6.8,26.5,2.1,20.6,2.1z
			 M23.8,15.4c-0.1,0.3-0.2,0.5-0.4,0.7c-0.2,0.2-0.4,0.4-0.7,0.6c-0.3,0.2-0.7,0.3-1.1,0.4v1.7h-1.7v-1.6c-0.7-0.1-1.2-0.2-1.6-0.3
			c-0.4-0.1-0.7-0.3-0.9-0.4l0.6-1.6c0.3,0.2,0.7,0.3,1.1,0.4c0.4,0.1,0.9,0.2,1.4,0.2c0.6,0,0.9-0.1,1.1-0.2
			c0.2-0.1,0.3-0.4,0.3-0.6c0-0.2,0-0.3-0.1-0.4c-0.1-0.1-0.2-0.2-0.4-0.3c-0.2-0.1-0.3-0.2-0.6-0.3c-0.2-0.1-0.5-0.2-0.8-0.3
			s-0.6-0.2-0.9-0.4c-0.3-0.1-0.5-0.3-0.8-0.5c-0.2-0.2-0.4-0.4-0.6-0.7c-0.1-0.3-0.2-0.6-0.2-1c0-0.3,0-0.6,0.1-0.9
			c0.1-0.3,0.2-0.5,0.4-0.8c0.2-0.2,0.4-0.4,0.7-0.6c0.3-0.2,0.6-0.3,1-0.3V6.7h1.7v1.4c0.5,0,0.9,0.1,1.2,0.2
			c0.3,0.1,0.6,0.2,0.8,0.3L23,10.2c-0.3-0.1-0.6-0.2-1-0.3s-0.8-0.1-1.2-0.1s-0.7,0.1-0.9,0.2c-0.2,0.1-0.3,0.3-0.3,0.6
			c0,0.1,0,0.3,0.1,0.4c0.1,0.1,0.2,0.2,0.3,0.3c0.1,0.1,0.3,0.2,0.5,0.2c0.2,0.1,0.4,0.2,0.7,0.3c0.4,0.1,0.8,0.3,1.1,0.5
			c0.3,0.2,0.6,0.4,0.9,0.6c0.2,0.2,0.4,0.5,0.6,0.8c0.1,0.3,0.2,0.6,0.2,1C23.9,14.9,23.9,15.2,23.8,15.4z"/>
	</g>
</g>
<g id="Layer_2" class="st0">
	<g class="st1">
		<path class="st2" d="M20.7,2.1C14.8,2.1,10,6.9,10,12.8c0,5.9,4.8,10.7,10.7,10.7c5.9,0,10.7-4.8,10.7-10.7
			C31.4,6.9,26.6,2.1,20.7,2.1z M20.9,11.6c1.6,1.2,3.2,2.5,4.8,3.7c0.1,0.1,0.2,0.2,0.2,0.4c0,1.1-1,2-2.1,2.1c-0.7,0-1.3,0-2,0
			v1.4h-2.3v-1.4c-0.7,0-1.3,0-2,0c-1,0-1.9-0.8-2.1-1.8c-0.1-0.4,0-0.5,0.4-0.5c1.9,0,3.8,0,5.7,0c0.1,0,0.3,0,0.4,0
			c0-0.1-0.1-0.2-0.1-0.2c-1.2-0.9-2.3-1.9-3.5-2.8c-0.8-0.7-1.7-1.4-2.5-2c-0.1-0.1-0.2-0.2-0.2-0.4c0.1-1.1,1-2,2.2-2
			c0.6,0,1.1,0,1.7,0V6.4h2.3v1.7c0.6,0,1.3,0,1.9,0c1,0,1.9,0.8,2.1,1.8c0.1,0.4,0,0.5-0.4,0.5c-1.9,0-3.8,0-5.7,0
			c-0.1,0-0.2,0-0.4,0C19.9,10.9,20.4,11.3,20.9,11.6z"/>
	</g>
</g>
<g id="Layer_3">
	<g>
		<path class="st2" d="M17.2,22.1c-1.2,0-2.5,0-3.7,0c-1.9,0-3.5-1.5-3.8-3.4c-0.1-0.7,0-0.9,0.7-0.9c3.5,0,7,0,10.5,0
			c0.3,0,0.5,0,0.8,0c0-0.2-0.1-0.3-0.2-0.4c-2.1-1.7-4.3-3.4-6.4-5.2c-1.6-1.3-3.1-2.5-4.7-3.8c-0.2-0.2-0.4-0.3-0.4-0.7
			c0.1-2.1,1.9-3.8,4-3.8c1,0,2.1,0,3.1,0V0.9h4.2v3.2c1.2,0,2.4,0,3.6,0c1.9,0,3.6,1.5,3.9,3.4c0.1,0.8,0,0.9-0.7,0.9
			c-3.5,0-7,0-10.5,0c-0.2,0-0.4-0.1-0.7,0.1c0.9,0.7,1.8,1.5,2.7,2.2c3,2.3,5.9,4.6,8.9,6.9c0.3,0.2,0.3,0.4,0.3,0.7
			c0,2-1.8,3.8-3.8,3.8c-1.2,0-2.5,0-3.7,0v2.6h-4.2V22.1z"/>
	</g>
</g>
</svg>
